# xmcd CD database file
#
# Track frame offsets:
#	150
#	13218
#	24595
#	36753
#	50501
#	62463
#	74122
#	85387
#	97203
#	111376
#	123104
#	139063
#
# Disc length: 2021 seconds
#
# Revision: 0
# Processed by: cddbd v1.5.2PL0 Copyright (c) Steve Scherf et al.
# Submitted via: CDex 1.70beta2
#
DISCID=ae07e30c
DTITLE=Ray Charles - The Genius Of Soul - CD2
DYEAR=2008
DGENRE=Jazz
TTITLE0=Baby, Won't You Please Come Home
TTITLE1=Let's Have A Ball
TTITLE2=Honey, Honey
TTITLE3=This Love Of Mine
TTITLE4=I Love You, I Love You
TTITLE5=How Long
TTITLE6=Sue's On The Ball
TTITLE7=Can't See You Darling
TTITLE8=Someday
TTITLE9=If I Give You My Love
TTITLE10=St. Pete Blues
TTITLE11=The Snow Is Falling
EXTD=YEAR: 2008
EXTT0=
EXTT1=
EXTT2=
EXTT3=
EXTT4=
EXTT5=
EXTT6=
EXTT7=
EXTT8=
EXTT9=
EXTT10=
EXTT11=
PLAYORDER=
